# xmcd
#
# Track frame offsets:
#	150
#	17635
#	27212
#	39805
#	56511
#	69429
#	80044
#	91560
#	109038
#	120349
#	131282
#	153740
#	166293
#	185681
#	196047
#	209924
#
# Disc length: 2865 seconds
#
# Revision: 0
# Processed by: cddbd v1.5.2PL0 Copyright (c) Steve Scherf et al.
# Submitted via: EasyCDDAExtractor 16.0.6.1
#
DISCID=c90b2f10
DTITLE=Οι μπαλάντες της οδού Αθηνάς-Μ. Χατζιδάκι
DYEAR=1993
DGENRE=Έντεχνη νεώτερη
TTITLE0=Λέκκας Βασίλης - Είμαι της αγάπης γιος [Μ. Χατζιδάκις]
TTITLE1=Λιούγκος Ηλίας - Το μυστήριο της 4ης πρωϊνής [Αγαθή Δημητρούκα]
TTITLE2=Βενετζάνου Νένα - Τρεις δολοφόνοι [Μ. Χατζιδάκις]
TTITLE3=Πασπαλά Έλλη-Λιούγκος Ηλίας - Αρχαία βία προγονική [Αγαθή Δημητρούκα]
TTITLE4=Λιούγκος Ηλίας - Ένα αερόστατο με αίμα [Μ. Χατζιδάκις-Άρης Δαβαράκης]
TTITLE5=Βενετσάνου Νένα-Λιούγκος Η.-Λέκκας Β.-Πασπαλά Έ. - Νυχτερινά αγάλματα 
TTITLE5=[Άρης Δαβαράκης]
TTITLE6=Πασπαλά Έλλη-Λέκκας Βασίλης - Ερωτική άσκηση για δύο [Μ. Χατζιδάκις]
TTITLE7=Βενετσάνου Νένα-Λιούγκος Η.-Λέκκας Β.-Πασπαλά Έ. - Ερωτική άσκηση για 
TTITLE7=τέσσερις [Μ. Χατζιδάκις]
TTITLE8=Βενετσάνου Νένα - Η Μαριάνθη των ανέμων [Μ. Χατζιδάκις]
TTITLE9=Λιούγκος Ηλίας - Το αίμα που παγώνει [Άρης Δαβαράκης]
TTITLE10=Πασπαλά Έλλη - Δυό παιδιά μέσ' στην βροχή [Μ. Χατζιδάκις]
TTITLE11=Πασπαλά Έλλη-Λέκκας Β.-Βενετσάνου Ν. - Η πόρτα του παραδείσου [Αγαθή 
TTITLE11=Δημητρούκα]
TTITLE12=Λέκκας Βασίλης - Ο πωλητής ιδανικών στιγμών [Άρης Δαβαράκης]
TTITLE13=Πασπαλά Έλλη-Λέκκας Β.-Βενετσάνου Ν.-Λιούγκος Η. - Η μεταμόρφωση [Μ. 
TTITLE13=Χατζιδάκις]
TTITLE14=Βενετσάνου Νένα - Στην μνήμη μιάς παλιάς φωτογραφίας [Άρης Δαβαράκης]
TTITLE15=Λιούγκος Ηλίας - Ντόμινε [Αγαθή Δημητρούκα]
EXTD=
EXTT0=
EXTT1=
EXTT2=
EXTT3=
EXTT4=
EXTT5=
EXTT6=
EXTT7=
EXTT8=
EXTT9=
EXTT10=
EXTT11=
EXTT12=
EXTT13=
EXTT14=
EXTT15=
PLAYORDER=
